<?xml version="1.0" standalone="no"?>
<!DOCTYPE svg PUBLIC "-//W3C//DTD SVG 1.1//EN" "http://www.w3.org/Graphics/SVG/1.1/DTD/svg11.dtd" >
<svg xmlns="http://www.w3.org/2000/svg">
<metadata>
This is a custom SVG webfont generated by Font Squirrel.
Copyright   :  1987 1995 2002 Adobe Systems Incorporated All rights reserved Protected by US Patents D289420
Designer    : Kris Holmes Charles Bigelow
Foundry URL : httpwwwadobecomtype
</metadata>
<defs>
<font id="LucidaSansStdRoman" horiz-adv-x="1296" >
<font-face units-per-em="2048" ascent="1579" descent="-469" />
<missing-glyph horiz-adv-x="647" />
<glyph unicode=" "  horiz-adv-x="647" />
<glyph unicode="&#x09;" horiz-adv-x="647" />
<glyph unicode="&#xa0;" horiz-adv-x="647" />
<glyph unicode="!" horiz-adv-x="419" d="M111 0v197h196v-197h-196zM111 1159v322h196v-322l-24 -764h-148z" />
<glyph unicode="&#x22;" horiz-adv-x="763" d="M111 1579h196l-24 -494h-148zM457 1579h196l-24 -494h-148z" />
<glyph unicode="#" d="M14 444l25 123h307l86 346h-323l24 123h330l110 445h127l-110 -445h264l111 445h127l-111 -445h299l-25 -123h-305l-86 -346h324l-25 -123h-329l-113 -444h-127l113 444h-265l-110 -444h-129l112 444h-301zM473 567h264l86 346h-264z" />
<glyph unicode="$" d="M225 82v170q236 -104 396 -105v531q-78 47 -129.5 84t-107.5 92t-85 122.5t-29 147.5q0 145 102.5 250t248.5 107v123h98v-123q150 -6 321 -68v-162q-199 88 -321 95v-527q27 -16 84 -51t83.5 -53.5t68.5 -53t62.5 -66.5t36 -80t15.5 -105q0 -156 -94 -270.5t-256 -139.5 v-123h-98v123q-169 -2 -396 82zM442 1126q0 -82 47.5 -137t131.5 -106v456q-78 -20 -128.5 -77.5t-50.5 -135.5zM719 160q86 23 132 84t46 143q0 57 -29.5 103.5t-57.5 68t-91 62.5v-461z" />
<glyph unicode="%" horiz-adv-x="1370" d="M12 1112q0 160 81 264.5t234.5 104.5t234.5 -104.5t81 -264.5t-81 -265.5t-234.5 -105.5t-234.5 105.5t-81 265.5zM25 -37l1167 1555h154l-1168 -1555h-153zM160 1112.5q0 -61.5 13 -119t53 -105.5t101.5 -48t101.5 48t53.5 105.5t13.5 119t-13.5 117.5t-53.5 104 t-101.5 48t-101.5 -48t-53 -104t-13 -117.5zM727 370.5q0 159.5 81 264t234.5 104.5t234.5 -104.5t81 -264t-81 -265t-234.5 -105.5t-234.5 105.5t-81 265zM874 370.5q0 -61.5 13.5 -118.5t53.5 -105.5t101.5 -48.5t101.5 48.5t53 105.5t13 118.5t-13 118t-53 104.5 t-101.5 48t-101.5 -48t-53.5 -104.5t-13.5 -118z" />
<glyph unicode="&#x26;" horiz-adv-x="1427" d="M76 434q0 172 97 298t261 171q-98 180 -98 297q0 139 106.5 228.5t247.5 89.5q137 0 235.5 -81t98.5 -214q0 -236 -326 -385l349 -498q88 121 88 381v65h196q-4 -348 -194 -565l204 -221h-280l-72 88q-152 -125 -379 -125q-127 0 -226 37t-155.5 90t-92.5 122t-48 123 t-12 99zM272 485q0 -33 9.5 -75.5t35 -97t64.5 -98.5t106.5 -73.5t153.5 -29.5q145 0 260 92l-399 583q-230 -82 -230 -301zM532 1212q0 -106 95 -256q92 39 152.5 104.5t60.5 153.5q0 72 -43 114t-115 42q-68 0 -109 -44t-41 -114z" />
<glyph unicode="'" horiz-adv-x="468" d="M111 1579h247l-49 -543h-149z" />
<glyph unicode="(" horiz-adv-x="665" d="M123 641q0 268 127 535.5t342 402.5v-137q-272 -266 -273 -801q0 -532 273 -803v-135q-215 133 -342 400.5t-127 537.5z" />
<glyph unicode=")" horiz-adv-x="665" d="M74 -160q272 266 272 801q0 532 -272 803v135q215 -133 342 -400.5t127 -537.5q0 -268 -127 -535.5t-342 -402.5v137z" />
<glyph unicode="*" horiz-adv-x="987" d="M111 1147l45 141l284 -125q-29 -18 -28 -65q0 -10 2 -17zM211 838l207 231q6 -18 27.5 -33.5t41.5 -17.5l-157 -266zM420 1481h147l-30 -310q-16 10 -43 10.5t-43 -10.5zM500 1018q20 2 41.5 17.5t27.5 33.5l207 -231l-119 -86zM547 1163l284 125l46 -141l-304 -66 q2 6 2 17q1 47 -28 65z" />
<glyph unicode="+" d="M55 518v148h518v518h148v-518h518v-148h-518v-518h-148v518h-518z" />
<glyph unicode="," horiz-adv-x="647" d="M199 0v246h247v-189q0 -72 -10 -128t-35.5 -107t-77 -82t-124.5 -37v76q59 16 84 86q20 57 16 135h-100z" />
<glyph unicode="-" horiz-adv-x="665" d="M111 543v147h444v-147h-444z" />
<glyph unicode="." horiz-adv-x="647" d="M199 0v246h247v-246h-247z" />
<glyph unicode="/" horiz-adv-x="1011" d="M12 -297l826 1876h161l-825 -1876h-162z" />
<glyph unicode="0" d="M129 739q0 131 26.5 259t83 249t162 196t246.5 75q115 0 206 -50.5t148.5 -130.5t95.5 -185t53 -207.5t15 -205t-15 -204t-53 -207t-95.5 -185.5t-148.5 -130t-206 -50q-141 0 -246.5 75t-162 195.5t-83 247.5t-26.5 258zM338 739q0 -285 75.5 -456.5t235.5 -171.5 q158 0 232.5 171t74.5 457q0 285 -74.5 458t-232.5 173q-160 0 -235.5 -172t-75.5 -459z" />
<glyph unicode="1" d="M340 1358v98l393 37v-1493h-196v1358h-197z" />
<glyph unicode="2" d="M170 0v172q47 113 136 221.5t179 189.5t174 160.5t137.5 170t53.5 184.5q0 129 -74 200.5t-203 71.5q-162 0 -366 -121v174q184 94 391 95q197 0 329 -107.5t132 -300.5q0 -119 -57.5 -220.5t-144.5 -180t-177 -154.5t-168 -175t-104 -208h643v-172h-881z" />
<glyph unicode="3" d="M209 10v185q215 -84 332 -84q150 0 235.5 78.5t85.5 220.5q0 309 -438 309h-78v133q84 0 145.5 5t129 22.5t108.5 48t68.5 86t27.5 131.5q0 115 -76.5 170t-195.5 55q-152 0 -324 -84v172q154 59 344 60q90 0 167 -17.5t142.5 -55.5t102.5 -107.5t37 -163.5 q0 -139 -85 -231.5t-224 -137.5v-4q164 -27 261 -127.5t97 -259.5q0 -82 -24.5 -155t-79 -142.5t-163 -111.5t-257.5 -42q-168 0 -338 47z" />
<glyph unicode="4" d="M104 420v147l668 914h184v-914h197v-147h-197v-420h-184v420h-668zM289 567h495v672h-4z" />
<glyph unicode="5" d="M246 -6v176q147 -59 272 -59q172 0 247 93t75 224q0 125 -70 205t-165 107.5t-218 27.5l-117 -8v721h748v-172h-576v-391q66 4 139.5 -5.5t158.5 -41t151.5 -85t112 -148.5t45.5 -218q0 -55 -12.5 -110.5t-48.5 -120t-93 -112.5t-155.5 -81t-225.5 -33q-137 0 -268 31z " />
<glyph unicode="6" d="M137 713q0 102 13.5 201.5t54.5 212t103.5 196.5t172 139.5t250.5 55.5q164 0 340 -56v-172q-205 80 -344 80q-371 0 -381 -600l4 -4q133 184 363 184q195 0 314.5 -132t119.5 -326q0 -45 -10.5 -102.5t-43 -136.5t-84 -140.5t-144.5 -105.5t-214 -44q-143 0 -248.5 68.5 t-161 184.5t-80 239t-24.5 258zM358 524q0 -166 78 -289.5t236 -123.5q141 0 209.5 100t68.5 248q0 145 -71.5 247.5t-210.5 102.5q-123 0 -216.5 -82t-93.5 -203z" />
<glyph unicode="7" d="M221 1296v185h950v-185q-209 -324 -345 -568.5t-193.5 -391t-73.5 -207.5t-24 -129h-238q14 172 142 406.5t544 889.5h-762z" />
<glyph unicode="8" d="M150 369q0 133 84.5 251.5t209.5 186.5q-111 74 -166 149.5t-55 190.5q0 49 17.5 103.5t61.5 119t140.5 106.5t231.5 42q164 0 286.5 -82t122.5 -238q0 -223 -278 -391q158 -76 250 -175.5t92 -248.5q0 -68 -26.5 -136.5t-83 -135t-161 -107.5t-241.5 -41q-115 0 -205 32 t-141 77t-84 103t-44 105.5t-11 88.5zM346 397q0 -133 84 -209.5t219 -76.5q117 0 203 63.5t86 173.5q0 109 -73.5 175.5t-280.5 185.5q-23 12 -33 18q-102 -78 -153.5 -151t-51.5 -179zM408 1176q0 -51 24.5 -96.5t66.5 -81t84 -63.5t89 -54q16 -8 22 -13q205 129 205 308 q0 96 -75.5 145t-176.5 49q-96 0 -167.5 -51t-71.5 -143z" />
<glyph unicode="9" d="M150 989q0 45 10 102.5t43 136.5t84 140.5t144 105.5t214 44q143 0 248.5 -69t161 -184.5t80 -238.5t24.5 -258q0 -102 -13 -201.5t-54 -212t-103.5 -196.5t-172 -139.5t-251.5 -55.5q-164 0 -340 55v172q205 -80 344 -79q371 0 381 600l-4 4q-63 -90 -157.5 -137.5 t-204.5 -47.5q-195 0 -314.5 132t-119.5 327zM346 1022q0 -145 71.5 -247.5t211.5 -102.5q123 0 216 82t93 202q0 166 -78 290t-235 124q-141 0 -210 -100.5t-69 -247.5z" />
<glyph unicode=":" horiz-adv-x="647" d="M199 0v246h247v-246h-247zM199 840v245h247v-245h-247z" />
<glyph unicode=";" horiz-adv-x="647" d="M199 0v246h247v-189q0 -72 -10 -128t-35.5 -107t-77 -82t-124.5 -37v76q59 16 84 86q20 57 16 135h-100zM199 840v245h247v-245h-247z" />
<glyph unicode="&#x3c;" d="M55 592l1184 592v-172l-852 -420l852 -420v-168z" />
<glyph unicode="=" d="M55 344v148h1184v-148h-1184zM55 692v148h1184v-148h-1184z" />
<glyph unicode="&#x3e;" d="M55 0v172l854 420l-854 420v168l1184 -588z" />
<glyph unicode="?" horiz-adv-x="864" d="M37 1294v168q193 55 350 56q182 0 311 -85t129 -259q0 -82 -38.5 -153t-95.5 -121l-112 -100q-56 -50 -95.5 -117t-39.5 -144v-144h-196v103q0 94 57.5 190t127 165t126.5 157t57 166q0 100 -76.5 147t-183.5 47q-155 0 -321 -76zM250 0v197h196v-197h-196z" />
<glyph unicode="@" horiz-adv-x="1757" d="M82 571q0 244 127 462t344 351.5t461 133.5q119 0 234.5 -41t211.5 -117t155.5 -198t59.5 -269q0 -231 -144.5 -413.5t-369.5 -182.5q-170 0 -170 117q0 39 39 166l21 61h-13q-66 -133 -169 -238.5t-220 -105.5q-92 0 -141 64.5t-49 160.5q0 49 16.5 124t56 170t97 176 t149.5 136.5t203 55.5q59 0 165.5 -7.5t131.5 -9.5l-121 -606q-12 -61 -12 -88q0 -53 76 -53q125 0 228 131t103 323q0 233 -156.5 377t-394.5 144q-207 0 -392 -113t-294.5 -299t-109.5 -393q0 -238 150.5 -371t392.5 -133q174 0 296 61l41 -106q-174 -78 -358 -78 q-145 0 -262 45t-186.5 113.5t-115.5 153.5t-63.5 159t-17.5 137zM612 561q0 -141 86 -141q70 0 193 154.5t172 259.5l39 194q-88 33 -154 33q-115 0 -194.5 -85t-110.5 -193.5t-31 -221.5z" />
<glyph unicode="A" horiz-adv-x="1413" d="M23 0l585 1481h197l586 -1481h-211l-168 420h-652l-165 -420h-172zM420 567h534l-268 676z" />
<glyph unicode="B" horiz-adv-x="1177" d="M197 0v1481h417q172 0 292 -85t120 -239q0 -131 -85 -238.5t-212 -146.5v-4q156 -37 256 -142.5t100 -258.5q0 -135 -100 -251t-278 -116h-510zM393 158q96 -10 187 -11q297 0 297 238q0 94 -51.5 161.5t-131.5 100.5t-155 46q-66 12 -127 12h-19v-547zM393 827h82 q154 0 254 71t100 214q0 221 -317 221h-119v-506z" />
<glyph unicode="C" horiz-adv-x="1417" d="M111 739q0 336 179 557.5t507 221.5q227 0 501 -68v-186q-106 37 -159.5 53t-151.5 34.5t-190 18.5q-129 0 -225.5 -54t-149.5 -147.5t-78 -200t-25 -229.5q0 -121 25 -227t78 -199.5t149.5 -147.5t225.5 -54q260 0 501 139v-170q-199 -117 -501 -117q-330 0 -508 220 t-178 556z" />
<glyph unicode="D" horiz-adv-x="1533" d="M197 0v1481h540q332 0 509 -187.5t177 -519.5q0 -154 -42 -291t-123.5 -246.5t-216 -173t-306.5 -63.5h-538zM393 147h334q86 0 165 28t154.5 91.5t121.5 189.5t46 300q0 154 -44 267.5t-103 170.5t-143 91t-140.5 41t-117.5 7h-273v-1186z" />
<glyph unicode="E" horiz-adv-x="1110" d="M197 0v1481h815v-148h-619v-487h520v-148h-520v-551h662v-147h-858z" />
<glyph unicode="F" horiz-adv-x="1097" d="M197 0v1481h815v-148h-619v-506h520v-147h-520v-680h-196z" />
<glyph unicode="G" horiz-adv-x="1480" d="M111 739q0 336 179 557.5t507 221.5q227 0 501 -68v-186q-106 37 -159.5 53t-151.5 34.5t-190 18.5q-129 0 -225.5 -54t-149.5 -147.5t-78 -200t-25 -229.5q0 -121 25 -227t78 -199.5t149.5 -147.5t225.5 -54q201 0 307 41v440h196v-551q-240 -78 -503 -78 q-330 0 -508 220t-178 556z" />
<glyph unicode="H" horiz-adv-x="1505" d="M197 0v1481h196v-635h719v635h197v-1481h-197v698h-719v-698h-196z" />
<glyph unicode="I" horiz-adv-x="589" d="M197 0v1481h196v-1481h-196z" />
<glyph unicode="J" horiz-adv-x="636" d="M-182 -98q113 -39 207 -39q61 0 104 20.5t65.5 49t34 79.5t13.5 88t2 103v1278h196v-1317q0 -80 -18.5 -152.5t-64.5 -146.5t-140 -118t-227 -44q-88 0 -172 18v181z" />
<glyph unicode="K" horiz-adv-x="1337" d="M197 0v1481h196v-1481h-196zM395 750l592 731h191l-562 -690l691 -791h-271z" />
<glyph unicode="L" horiz-adv-x="1091" d="M197 0v1481h196v-1334h668v-147h-864z" />
<glyph unicode="M" horiz-adv-x="1763" d="M197 0v1481h278l414 -1166h4l426 1166h248v-1481h-185v1221h-4l-409 -1123h-197l-399 1123h-4v-1221h-172z" />
<glyph unicode="N" horiz-adv-x="1517" d="M197 0v1481h198l750 -1170h4v1170h172v-1481h-197l-751 1169h-4v-1169h-172z" />
<glyph unicode="O" horiz-adv-x="1591" d="M111 739q0 336 179 557.5t506.5 221.5t506 -220.5t178.5 -558.5q0 -336 -178.5 -556t-505.5 -220q-330 0 -508 220t-178 556zM319 739q0 -121 25 -227t78 -199.5t149.5 -147.5t225.5 -54t224 54t148.5 146t78 199.5t24.5 228.5q0 123 -24.5 229.5t-78 200t-148.5 147.5 t-224 54t-225.5 -54t-149.5 -147.5t-78 -200t-25 -229.5z" />
<glyph unicode="P" horiz-adv-x="1132" d="M180 0v1481h479q176 0 295 -94.5t119 -290.5q0 -506 -674 -506h-22v-590h-197zM377 737q33 -2 63 -2q424 0 424 344q0 129 -77.5 191.5t-180.5 62.5h-229v-596z" />
<glyph unicode="Q" horiz-adv-x="1591" d="M111 739q0 336 179 557.5t506.5 221.5t506 -220.5t178.5 -558.5q0 -236 -91.5 -425t-283.5 -285q260 -117 518 -164l-125 -162q-346 121 -575 270q-8 0 -30 -3t-32 -5q-10 0 -32.5 -1t-32.5 -1q-330 0 -508 220t-178 556zM319 739q0 -121 25 -227t78 -199.5t149.5 -147.5 t225.5 -54t224 54t148.5 146t78 199.5t24.5 228.5q0 123 -24.5 229.5t-78 200t-148.5 147.5t-224 54t-225.5 -54t-149.5 -147.5t-78 -200t-25 -229.5z" />
<glyph unicode="R" d="M197 0v1481h479q63 0 127.5 -18.5t128 -57.5t103.5 -116t40 -181q0 -135 -87 -253t-216 -163l494 -692h-244l-428 629h-201v-629h-196zM393 784q53 -8 84 -8q188 0 288.5 82t100.5 244q0 106 -77.5 168.5t-200.5 62.5h-195v-549z" />
<glyph unicode="S" horiz-adv-x="1103" d="M104 31v198q250 -119 416 -118q115 0 196 64.5t81 174.5q0 98 -71 176t-171 133.5t-200.5 112.5t-171 146.5t-70.5 205.5q0 55 22.5 117t69.5 127.5t139 107.5t213 42q182 0 346 -60v-182q-8 2 -42 16.5t-44 18.5t-41 15t-45 14t-41.5 11.5t-46 10.5t-43.5 5t-47 3 q-123 0 -189.5 -68.5t-66.5 -142.5q0 -82 71.5 -151.5t174 -125t205 -118t174 -159.5t71.5 -220q0 -47 -13 -99.5t-49 -110.5t-90.5 -104t-145.5 -77t-206 -31q-168 0 -385 68z" />
<glyph unicode="T" d="M25 1333v148h1245v-148h-525v-1333h-196v1333h-524z" />
<glyph unicode="U" horiz-adv-x="1419" d="M184 492v989h197v-916q0 -84 7 -146.5t28.5 -124t59.5 -99t102.5 -61t154.5 -23.5q88 0 150.5 24.5t96.5 61t53.5 101t23.5 121t4 142.5v920h172v-989q0 -528 -508 -529q-274 0 -407.5 136.5t-133.5 392.5z" />
<glyph unicode="V" horiz-adv-x="1339" d="M23 1481h210l465 -1229l447 1229h172l-537 -1481h-196z" />
<glyph unicode="W" horiz-adv-x="1751" d="M6 1481h191l305 -1188h4l280 1188h195l264 -1170h4l330 1170h166l-418 -1481h-199l-262 1165h-4l-276 -1165h-197z" />
<glyph unicode="X" horiz-adv-x="1282" d="M33 0l493 745l-469 736h236l360 -572l381 572h193l-475 -719l485 -762h-233l-383 598l-396 -598h-192z" />
<glyph unicode="Y" horiz-adv-x="1275" d="M27 1481h227l387 -678l418 678h188l-530 -865v-616h-197v616z" />
<glyph unicode="Z" horiz-adv-x="1239" d="M98 0v160l803 1173h-754v148h994v-148l-803 -1173h803v-160h-1043z" />
<glyph unicode="[" horiz-adv-x="665" d="M197 -297v1876h395v-147h-223v-1582h223v-147h-395z" />
<glyph unicode="\" horiz-adv-x="1011" d="M12 1579h162l825 -1876h-161z" />
<glyph unicode="]" horiz-adv-x="665" d="M74 -150h223v1582h-223v147h395v-1876h-395v147z" />
<glyph unicode="^" d="M55 297l592 1184l592 -1184h-164l-428 852l-426 -852h-166z" />
<glyph unicode="_" horiz-adv-x="1024" d="M0 -154h1024v-102h-1024v102z" />
<glyph unicode="`" horiz-adv-x="1257" d="M358 1579h222l223 -295h-174z" />
<glyph unicode="a" horiz-adv-x="1130" d="M90 274q0 158 139.5 263.5t409.5 105.5h78v74q0 131 -38 188.5t-163 57.5q-152 0 -332 -97v162q193 82 379 82q350 0 350 -322v-483q0 -121 27 -155q23 -33 72 -33h6h37l14 -111q-61 -31 -145 -31q-72 0 -121 45.5t-62 116.5q-162 -162 -333 -162q-135 0 -226.5 83 t-91.5 216zM287 303q0 -72 52 -120t126 -48q123 0 252 111v280h-94q-70 0 -140.5 -18.5t-133 -71.5t-62.5 -133z" />
<glyph unicode="b" horiz-adv-x="1290" d="M176 -12v1591h197v-494l-13 -202h13q115 227 362 227q113 0 197 -45t132 -123t70.5 -170t22.5 -199q0 -109 -26.5 -212t-80 -191t-143.5 -141.5t-207 -53.5q-205 0 -327 148h-13l-24 -135h-160zM373 260q82 -72 144.5 -104.5t150.5 -32.5q80 0 137 40t87 106.5t43 136 t13 145.5q0 387 -250 387q-172 0 -325 -180v-498z" />
<glyph unicode="c" horiz-adv-x="1060" d="M111 543q0 100 24.5 192t79.5 180.5t161.5 141.5t252.5 53q139 0 309 -35v-166q-160 53 -287 54q-164 0 -248 -124t-84 -298q0 -180 88.5 -299t260.5 -119q154 0 282 67v-157q-195 -57 -321.5 -57.5t-224 42.5t-150.5 104.5t-88 143.5t-45 148t-10 129z" />
<glyph unicode="d" horiz-adv-x="1290" d="M111 512q0 109 26.5 212t79.5 191.5t144.5 141.5t205.5 53q209 0 328 -147h12l-12 147v469h197v-1579h-197l12 203h-12q-53 -109 -147.5 -168.5t-215.5 -59.5q-215 0 -318 155t-103 382zM319 535q0 -387 250 -388q172 0 326 181v497q-82 72 -144.5 105t-150.5 33 q-80 0 -137 -40t-87 -106.5t-43.5 -136t-13.5 -145.5z" />
<glyph unicode="e" horiz-adv-x="1140" d="M111 543q0 147 50 273t158.5 210t258.5 84q123 0 209.5 -52t131 -142.5t61.5 -189.5q14 -80 14 -171q0 -21 -1 -43h-674q4 -176 98.5 -282.5t266.5 -106.5q156 0 309 72v-158q-193 -61 -364 -62q-127 0 -224.5 43t-150.5 104.5t-88 143.5t-45 148t-10 129zM326 647h458 q0 9 1 18q0 71 -15 131q-16 67 -68.5 117t-136.5 50q-115 0 -173 -94.5t-66 -221.5z" />
<glyph unicode="f" horiz-adv-x="751" d="M100 938v147h154v189q0 164 101.5 247t256.5 83q106 0 222 -33v-156q-127 41 -213 41q-88 0 -129 -47t-41 -115v-209h272v-147h-272v-938h-197v938h-154z" />
<glyph unicode="g" horiz-adv-x="1275" d="M111 543q0 233 121.5 400t347.5 167q193 0 315 -147h12v122h185v-968q0 -262 -126 -399.5t-421 -137.5q-184 0 -344 60l22 170q168 -82 336 -82q197 0 266.5 99t69.5 282l12 118h-12q-47 -102 -144.5 -164.5t-209.5 -62.5q-115 0 -200 45t-134 123t-72.5 172t-23.5 203z M319 530q0 -358 252 -358q178 0 324 180v475q-121 135 -287 136q-154 0 -221.5 -120t-67.5 -313z" />
<glyph unicode="h" horiz-adv-x="1269" d="M190 0v1579h197v-494l-12 -202h12q156 227 389 227q139 0 221 -92t82 -221v-797h-196v772q0 78 -42 122t-110 44q-197 0 -344 -236v-702h-197z" />
<glyph unicode="i" horiz-adv-x="591" d="M197 0v1085h196v-1085h-196zM197 1284v197h196v-197h-196z" />
<glyph unicode="j" horiz-adv-x="622" d="M-158 -215q12 -4 50 -18.5t56.5 -20.5t48.5 -12t56 -6q31 0 56.5 4t44 17t32 22.5t20.5 33t12 36t7 44t2 43.5v49v48v1060h197v-1144q0 -164 -88 -262.5t-273 -98.5q-106 0 -221 49v156zM227 1284v197h197v-197h-197z" />
<glyph unicode="k" horiz-adv-x="1198" d="M197 0v1579h196v-1579h-196zM395 567l463 518h199l-430 -481l538 -604h-264z" />
<glyph unicode="l" horiz-adv-x="591" d="M197 0v1579h196v-1579h-196z" />
<glyph unicode="m" horiz-adv-x="1912" d="M193 0v1085h196l-12 -202h12q139 227 375 227q104 0 187 -63.5t91 -163.5h13q55 100 154.5 163.5t207.5 63.5q49 0 98.5 -14.5t97.5 -47t77.5 -96t29.5 -147.5v-805h-196v774q0 88 -43 130t-103 42q-94 0 -171 -59.5t-152 -159.5v-727h-197v774q0 88 -43 130t-102 42 q-94 0 -171 -59.5t-153 -159.5v-727h-196z" />
<glyph unicode="n" horiz-adv-x="1269" d="M190 0v1085h197l-12 -202h12q156 227 389 227q139 0 221 -92t82 -221v-797h-196v772q0 78 -42 122t-110 44q-197 0 -344 -236v-702h-197z" />
<glyph unicode="o" horiz-adv-x="1257" d="M111 543q0 100 24.5 192t79.5 180.5t161.5 141.5t252 53t252 -53t162 -141.5t80 -180.5t24.5 -192q0 -63 -10.5 -129t-45 -148t-88 -143.5t-150.5 -104.5t-224 -43t-224.5 43t-150.5 104.5t-88 143.5t-45 148t-10 129zM319 543q0 -176 73 -298t237 -122t236.5 122 t72.5 298t-72.5 298t-236.5 122t-237 -122t-73 -298z" />
<glyph unicode="p" horiz-adv-x="1290" d="M197 -395v1480h196l-12 -202h12q115 227 363 227q113 0 196.5 -45t132 -123t71 -170t22.5 -199q0 -109 -27 -212t-80 -191t-143 -141.5t-207 -53.5q-205 0 -328 148h-12l12 -148v-370h-196zM393 260q82 -72 144.5 -104.5t150.5 -32.5q80 0 137.5 40t87 106.5t43 136 t13.5 145.5q0 387 -250 387q-172 0 -326 -180v-498z" />
<glyph unicode="q" horiz-adv-x="1290" d="M111 512q0 109 26.5 212t79.5 191.5t144.5 141.5t205.5 53q209 0 328 -147h12l-12 122h197v-1480h-197v395l12 203h-12q-53 -109 -147.5 -168.5t-215.5 -59.5q-215 0 -318 155t-103 382zM319 535q0 -387 250 -388q172 0 326 181v497q-82 72 -144.5 105t-150.5 33 q-80 0 -137 -40t-87 -106.5t-43.5 -136t-13.5 -145.5z" />
<glyph unicode="r" horiz-adv-x="837" d="M197 0v1085h196l-12 -202h12q53 104 142.5 165.5t201.5 61.5h60v-188q-45 16 -88 16q-100 0 -182.5 -62.5t-133.5 -160.5v-715h-196z" />
<glyph unicode="s" horiz-adv-x="1044" d="M158 37v182q188 -96 331 -96q78 0 139.5 42t61.5 118q0 61 -54 105t-132 75t-155 66.5t-131 106.5t-54 171q0 150 100.5 226.5t274.5 76.5q74 0 266 -33v-164q-160 49 -264 50q-76 0 -134.5 -35t-58.5 -105q0 -55 55.5 -96t135 -73.5t158.5 -71.5t134.5 -110t55.5 -167 q0 -160 -120 -245t-288 -85q-124 1 -321 62z" />
<glyph unicode="t" horiz-adv-x="765" d="M70 938v147h135v199l196 21v-220h261v-147h-261v-578q0 -121 36 -179t149 -58q47 0 96 12v-135q-88 -25 -156 -25q-92 0 -158.5 32t-100.5 83t-48 99.5t-14 95.5v653h-135z" />
<glyph unicode="u" horiz-adv-x="1269" d="M190 289v796h197v-772q0 -78 42 -122t110 -44q197 0 344 236v702h196v-1085h-196l12 203h-12q-156 -227 -389 -228q-139 0 -221.5 92.5t-82.5 221.5z" />
<glyph unicode="v" horiz-adv-x="1171" d="M27 1085h200l369 -888l383 888h164l-469 -1085h-197z" />
<glyph unicode="w" horiz-adv-x="1720" d="M82 1085h192l261 -833h4l254 833h176l235 -847h4l273 847h155l-346 -1085h-196l-228 815h-4l-244 -815h-198z" />
<glyph unicode="x" horiz-adv-x="1255" d="M90 0l408 559l-394 526h248l307 -411l285 411h195l-379 -546l403 -539h-248l-317 424l-309 -424h-199z" />
<glyph unicode="y" horiz-adv-x="1163" d="M35 1085h213l330 -843l391 843h176l-684 -1480h-195l195 395z" />
<glyph unicode="z" horiz-adv-x="1173" d="M123 0v147l674 791h-643v147h884v-147l-671 -791h684v-147h-928z" />
<glyph unicode="{" horiz-adv-x="665" d="M25 567v148h43q80 0 119.5 36.5t39.5 127.5q0 35 -26 176q-29 135 -29 209q0 143 106.5 230t251.5 85v-147q-82 0 -134 -31t-52 -94q0 -51 23 -168q20 -131 20 -183q0 -195 -147 -315q147 -121 147 -315q0 -51 -20 -183q-23 -117 -23 -168q0 -63 52.5 -94t133.5 -31v-147 q-145 -2 -251.5 85t-106.5 230q0 74 29 209q27 141 26 176q0 90 -40 127t-119 37h-43z" />
<glyph unicode="|" horiz-adv-x="542" d="M197 -512v2048h147v-2048h-147z" />
<glyph unicode="}" horiz-adv-x="665" d="M135 -150q82 0 134.5 31t52.5 94q0 51 -23 168q-20 131 -20 183q0 195 147 315q-147 121 -147 315q0 51 20 183q23 117 23 168q0 63 -52.5 94t-134.5 31v147q145 2 252 -85t107 -230q0 -74 -29 -209q-27 -141 -27 -176q0 -90 40 -127t120 -37h43v-148h-43 q-80 0 -120 -36.5t-40 -127.5q0 -35 27 -176q29 -135 29 -209q0 -143 -106.5 -230t-252.5 -85v147z" />
<glyph unicode="~" d="M55 446q-4 135 82 231.5t221 96.5q100 0 285 -94q6 -4 36 -20.5t44 -23.5t44 -21.5t49.5 -22.5t44 -17.5t46 -13.5t39.5 -4q70 0 110 56.5t36 127.5h147q-2 -137 -75.5 -234t-207.5 -97q-59 0 -122.5 18t-97.5 33.5t-111 56.5q-211 109 -271 109q-70 0 -112.5 -54.5 t-38.5 -126.5h-148z" />
<glyph unicode="&#xa1;" horiz-adv-x="419" d="M111 -74l24 764h148l24 -764v-321h-196v321zM111 889v196h196v-196h-196z" />
<glyph unicode="&#xa2;" d="M201 752q0 225 121.5 382.5t341.5 170.5v176h98v-172q213 -18 268 -35v-166q-20 4 -80.5 21.5t-103.5 24.5t-84 7v-839q158 0 278 67v-158q-117 -43 -278 -57v-174h-98v176q-219 29 -341 189t-122 387zM385 729q0 -135 77 -249.5t202 -147.5v821q-125 -29 -202 -158 t-77 -266z" />
<glyph unicode="&#xa3;" d="M246 0v172q211 61 211 301v242h-178v147h178v275q0 63 21.5 126.5t65.5 122t129 95.5t197 37q104 0 207 -31v-166q-121 49 -243 49q-111 0 -146 -64.5t-35 -191.5v-252h217v-147h-217v-226q0 -170 -172 -313v-4h611v-172h-846z" />
<glyph unicode="&#xa4;" d="M55 236l238 237q-90 115 -90 266q0 154 90 269l-238 237l88 88l238 -237q117 88 266.5 88t267.5 -88l238 237l86 -88l-238 -237q90 -111 91 -269q0 -156 -91 -266l238 -237l-86 -89l-238 238q-119 -88 -268 -88t-266 88l-238 -238zM350 739q0 -121 87 -208t210 -87 t210 87t87 208q0 123 -87 210t-210 87q-125 0 -211 -87t-86 -210z" />
<glyph unicode="&#xa5;" d="M68 1481h233l358 -576l390 576h178l-500 -742h297v-147h-297v-98h297v-148h-297v-346h-197v346h-297v148h297v98h-297v147h297z" />
<glyph unicode="&#xa6;" horiz-adv-x="542" d="M197 358h147v-716h-147v716zM197 666v716h147v-716h-147z" />
<glyph unicode="&#xa7;" d="M205 -80q236 -106 411 -106q63 0 125 15t113 58t51 109q0 72 -71.5 125t-174 91t-205 83t-174 125t-71.5 192q0 162 147 299q-147 88 -147 242q0 160 131 262.5t348 102.5q158 0 342 -48v-161q-199 61 -348 61q-63 0 -124.5 -15.5t-113 -58.5t-51.5 -108q0 -74 69.5 -126 t170 -87t200 -77t169 -122t69.5 -194q0 -143 -149 -306q82 -35 125 -108.5t43 -159.5q0 -47 -21.5 -99t-71 -110.5t-149.5 -95.5t-238 -37q-190 0 -405 74v180zM381 662q0 -94 102.5 -163t339.5 -157q76 92 76 195q0 84 -72.5 134t-298.5 144q-47 20 -71 31 q-76 -86 -76 -184z" />
<glyph unicode="&#xa8;" horiz-adv-x="1257" d="M346 1284v172h172v-172h-172zM739 1284v172h172v-172h-172z" />
<glyph unicode="&#xa9;" horiz-adv-x="1751" d="M98 739.5q0 321.5 227.5 550t551.5 228.5q322 0 549 -228.5t227 -550t-227.5 -549t-549 -227.5t-550 227.5t-228.5 549zM221 739q0 -274 189.5 -463.5t466.5 -189.5q274 0 463.5 189.5t189.5 463.5q0 276 -189.5 466t-463.5 190q-276 0 -466 -190t-190 -466zM475 735 q0 186 113.5 314.5t320.5 128.5q123 0 250 -31v-123q-133 55 -241 55q-141 0 -218 -97t-77 -245q0 -145 80.5 -237t224.5 -92q127 0 231 61v-123q-133 -49 -254 -49q-193 0 -311.5 122.5t-118.5 315.5z" />
<glyph unicode="&#xaa;" horiz-adv-x="864" d="M72 932q0 135 109.5 208.5t330.5 73.5h47v35q0 145 -164 146q-139 0 -276 -84v147q139 59 311 60q156 0 228.5 -58.5t72.5 -189.5v-326v-17v-18q0 -2 1 -15t3 -15t5 -11.5t7.5 -11.5t11.5 -8t16 -7t21.5 -2t26.5 -1v-103q-57 -20 -110 -20q-104 0 -140 106 q-106 -106 -254 -106q-102 0 -174.5 58.5t-72.5 158.5zM244 944q0 -49 30.5 -77.5t79.5 -28.5q51 0 111.5 29.5t93.5 68.5v156h-37q-278 -1 -278 -148z" />
<glyph unicode="&#xab;" horiz-adv-x="1073" d="M111 604l395 445l98 -74l-295 -371l295 -371l-98 -73zM506 604l395 445l98 -74l-294 -371l294 -371l-98 -73z" />
<glyph unicode="&#xac;" d="M55 692v148h1184v-494h-147v346h-1037z" />
<glyph unicode="&#xad;" horiz-adv-x="665" d="M111 543v147h444v-147h-444z" />
<glyph unicode="&#xae;" d="M203 1073q0 184 131 314.5t313 130.5q184 0 314.5 -130.5t130.5 -314.5t-130.5 -314t-314.5 -130t-314 130t-130 314zM301 1073.5q0 -143.5 101.5 -245t245 -101.5t244.5 101.5t101 245t-101 244.5t-244.5 101t-245 -101t-101.5 -244.5zM473 803v530h129q51 0 81 -3 t70 -14t59 -42t19 -78q0 -96 -110 -158l125 -235h-113l-112 215h-50v-215h-98zM571 1092h27q121 0 121 92q0 18 -4 32.5t-16.5 22.5t-19.5 12t-29.5 6.5t-27.5 2.5h-32h-19v-168z" />
<glyph unicode="&#xaf;" horiz-adv-x="1257" d="M344 1284v148h569v-148h-569z" />
<glyph unicode="&#xb0;" horiz-adv-x="567" d="M111 1345.5q0 71.5 51 122t122.5 50.5t122 -50.5t50.5 -122t-50.5 -123t-122 -51.5t-122.5 51.5t-51 123zM197 1346q0 -37 25.5 -63t62.5 -26q35 0 60.5 26t25.5 63q0 35 -26 60.5t-60 25.5q-37 0 -62.5 -25.5t-25.5 -60.5z" />
<glyph unicode="&#xb1;" d="M55 0v147h1184v-147h-1184zM55 666v147h518v371h148v-371h518v-147h-518v-371h-148v371h-518z" />
<glyph unicode="&#xb2;" horiz-adv-x="864" d="M135 739v138q25 57 96.5 117.5t142 100.5t126 93t55.5 102q0 104 -172 105q-117 0 -248 -66v141q141 47 283 48q152 0 236.5 -60.5t84.5 -152.5q0 -68 -37.5 -123.5t-96 -93t-119 -68.5t-114 -68t-73.5 -75h453v-138h-617z" />
<glyph unicode="&#xb3;" horiz-adv-x="864" d="M154 756v141q154 -59 260 -59q59 0 105 26.5t46 79.5q0 129 -272 129h-29v123h21q51 0 78.5 2t82 10.5t82 35t27.5 67.5q0 84 -123 84q-129 0 -278 -60v138q147 45 292 45q49 0 95.5 -8.5t93.5 -27t75.5 -56t28.5 -91.5q0 -84 -69.5 -132t-165.5 -66v-4q98 -6 172 -58.5 t74 -144.5q0 -84 -82 -149.5t-232 -65.5q-128 0 -282 41z" />
<glyph unicode="&#xb4;" horiz-adv-x="1257" d="M455 1284l221 295h223l-272 -295h-172z" />
<glyph unicode="&#xb5;" horiz-adv-x="1284" d="M197 -297v1382h196v-772q0 -78 42 -122t110 -44q197 0 344 236v702h196v-1085h-196l12 203h-12q-135 -227 -318 -228q-104 0 -178 50v-322h-196z" />
<glyph unicode="&#xb6;" d="M215 1153q0 162 91 245t251 83h473v-1778h-123v1655h-149v-1655h-123v1036q-186 10 -303 119t-117 295z" />
<glyph unicode="&#xb7;" horiz-adv-x="647" d="M199 469v246h247v-246h-247z" />
<glyph unicode="&#xb8;" horiz-adv-x="1257" d="M510 -295q41 -8 65 -8q100 0 101 70q0 41 -38 64.5t-85 29.5l86 139h90l-61 -102q68 -12 111.5 -51.5t43.5 -102.5q0 -74 -59 -109.5t-133 -35.5q-59 0 -121 22v84z" />
<glyph unicode="&#xb9;" horiz-adv-x="864" d="M209 1370v111l309 24v-766h-172v631h-137z" />
<glyph unicode="&#xba;" horiz-adv-x="864" d="M61 1116q0 178 91.5 290t280 112t279.5 -112t91 -290q0 -180 -97.5 -290.5t-273.5 -110.5t-273.5 110.5t-97.5 290.5zM246 1116q0 -111 43 -194.5t143 -83.5t143 84t43 194q0 113 -43 196t-143 83t-143 -83t-43 -196z" />
<glyph unicode="&#xbb;" horiz-adv-x="1073" d="M74 233l295 371l-295 371l98 74l395 -445l-395 -444zM469 233l295 371l-295 371l98 74l396 -445l-396 -444z" />
<glyph unicode="&#xbc;" horiz-adv-x="1640" d="M96 1370v111l310 24v-766h-173v631h-137zM98 -37l1084 1555h192l-1083 -1555h-193zM850 197v155l352 400h191v-433h123v-122h-123v-197h-172v197h-371zM979 319h242v269z" />
<glyph unicode="&#xbd;" horiz-adv-x="1640" d="M37 -37l1083 1555h193l-1084 -1555h-192zM84 1370v111l309 24v-766h-172v631h-137zM926 0v137q25 57 96.5 117.5t142 100.5t126 93.5t55.5 102.5q0 104 -172 104q-117 0 -248 -65v141q141 47 282 47q152 0 237 -60.5t85 -152.5q0 -68 -38 -123t-96.5 -93t-118.5 -68.5 t-113.5 -67.5t-73.5 -76h452v-137h-616z" />
<glyph unicode="&#xbe;" horiz-adv-x="1787" d="M123 756v141q154 -59 260 -59q59 0 105.5 26.5t46.5 79.5q0 129 -273 129h-29v123h21q51 0 78.5 2t82 10.5t82 35t27.5 67.5q0 84 -123 84q-131 0 -278 -60v138q147 45 293 45q49 0 95 -8.5t93 -27t76 -56t29 -91.5q0 -84 -70 -132t-166 -66v-4q98 -6 172 -58.5 t74 -144.5q0 -84 -82 -149.5t-231 -65.5q-129 0 -283 41zM285 -37l1083 1555h193l-1084 -1555h-192zM999 197v155l353 400h190v-433h123v-122h-123v-197h-172v197h-371zM1126 319h244v269z" />
<glyph unicode="&#xbf;" horiz-adv-x="864" d="M37 -88q0 82 39 152.5t95 120.5l113 101q56 50 95 116.5t39 144.5v143h196v-102q0 -94 -57 -190.5t-127 -165t-127 -156.5t-57 -166q0 -92 77.5 -137t182.5 -45q156 0 321 75v-168q-193 -55 -350 -55q-86 0 -160.5 17.5t-139 54.5t-102.5 103.5t-38 156.5zM418 889v196 h196v-196h-196z" />
<glyph unicode="&#xc0;" horiz-adv-x="1413" d="M23 0l585 1481h197l586 -1481h-211l-168 420h-652l-165 -420h-172zM420 567h534l-268 676zM436 1892h221l224 -295h-174z" />
<glyph unicode="&#xc1;" horiz-adv-x="1413" d="M23 0l585 1481h197l586 -1481h-211l-168 420h-652l-165 -420h-172zM420 567h534l-268 676zM532 1597l222 295h223l-272 -295h-173z" />
<glyph unicode="&#xc2;" horiz-adv-x="1413" d="M23 0l585 1481h197l586 -1481h-211l-168 420h-652l-165 -420h-172zM373 1597l221 295h221l223 -295h-172l-161 197l-160 -197h-172zM420 567h534l-268 676z" />
<glyph unicode="&#xc3;" horiz-adv-x="1413" d="M23 0l585 1481h197l586 -1481h-211l-168 420h-652l-165 -420h-172zM373 1597q0 72 37 140q53 94 153 94q76 0 154 -39l35 -17q31 -15 52 -22.5t38 -7.5q66 0 73 86h123q0 -74 -37 -139q-53 -94 -153 -95q-76 0 -154 39l-35 18q-31 15 -52 22t-38 7q-66 0 -73 -86h-123z M420 567h534l-268 676z" />
<glyph unicode="&#xc4;" horiz-adv-x="1413" d="M23 0l585 1481h197l586 -1481h-211l-168 420h-652l-165 -420h-172zM420 567h534l-268 676zM424 1597v172h172v-172h-172zM817 1597v172h172v-172h-172z" />
<glyph unicode="&#xc5;" horiz-adv-x="1413" d="M23 0l585 1481h197l586 -1481h-211l-168 420h-652l-165 -420h-172zM420 567h534l-268 676zM547 1757.5q0 65.5 47 112.5t112.5 47t112.5 -47t47 -112.5t-47 -113t-112.5 -47.5t-112.5 47.5t-47 113zM621 1757q0 -35 25.5 -60.5t60 -25.5t60.5 25.5t26 60.5t-26 60.5 t-60.5 25.5t-60 -25.5t-25.5 -60.5z" />
<glyph unicode="&#xc6;" horiz-adv-x="1857" d="M25 0l864 1481h870v-148h-618v-487h520v-148h-520v-551h661v-147h-858v420h-489l-244 -420h-186zM541 567h403v690h-4z" />
<glyph unicode="&#xc7;" horiz-adv-x="1417" d="M111 739q0 336 179 557.5t507 221.5q227 0 501 -68v-186q-106 37 -159.5 53t-151.5 34.5t-190 18.5q-129 0 -225.5 -54t-149.5 -147.5t-78 -200t-25 -229.5q0 -121 25 -227t78 -199.5t149.5 -147.5t225.5 -54q260 0 501 139v-170q-199 -117 -501 -117h-11l-38 -65 q68 -12 111.5 -51.5t43.5 -102.5q0 -74 -59.5 -109.5t-132.5 -35.5q-59 0 -121 22v84q41 -8 65 -8q100 0 101 70q0 41 -38 64.5t-85 29.5l67 108q-285 33 -437 247t-152 523z" />
<glyph unicode="&#xc8;" horiz-adv-x="1110" d="M197 0v1481h815v-148h-619v-487h520v-148h-520v-551h662v-147h-858zM285 1892h221l223 -295h-174z" />
<glyph unicode="&#xc9;" horiz-adv-x="1110" d="M197 0v1481h815v-148h-619v-487h520v-148h-520v-551h662v-147h-858zM381 1597l221 295h223l-272 -295h-172z" />
<glyph unicode="&#xca;" horiz-adv-x="1110" d="M197 0v1481h815v-148h-619v-487h520v-148h-520v-551h662v-147h-858zM221 1597l221 295h222l223 -295h-172l-162 197l-160 -197h-172z" />
<glyph unicode="&#xcb;" horiz-adv-x="1110" d="M197 0v1481h815v-148h-619v-487h520v-148h-520v-551h662v-147h-858zM272 1597v172h172v-172h-172zM666 1597v172h172v-172h-172z" />
<glyph unicode="&#xcc;" horiz-adv-x="589" d="M25 1892h221l223 -295h-174zM197 0v1481h196v-1481h-196z" />
<glyph unicode="&#xcd;" horiz-adv-x="589" d="M121 1597l221 295h223l-272 -295h-172zM197 0v1481h196v-1481h-196z" />
<glyph unicode="&#xce;" horiz-adv-x="589" d="M-39 1597l221 295h221l224 -295h-172l-162 197l-160 -197h-172zM197 0v1481h196v-1481h-196z" />
<glyph unicode="&#xcf;" horiz-adv-x="589" d="M12 1597v172h172v-172h-172zM197 0v1481h196v-1481h-196zM406 1597v172h172v-172h-172z" />
<glyph unicode="&#xd0;" horiz-adv-x="1533" d="M-25 680v147h222v654h540q332 0 509 -187.5t177 -519.5q0 -154 -42 -291t-123.5 -246.5t-216 -173t-306.5 -63.5h-538v680h-222zM393 147h334q86 0 165 28t154.5 91.5t121.5 189.5t46 300q0 154 -44 267.5t-103 170.5t-143 91t-140.5 41t-117.5 7h-273v-506h344v-147 h-344v-533z" />
<glyph unicode="&#xd1;" horiz-adv-x="1517" d="M197 0v1481h198l750 -1170h4v1170h172v-1481h-197l-751 1169h-4v-1169h-172zM426 1597q0 72 37 140q53 94 153 94q76 0 154 -39l35 -17q31 -15 52.5 -22.5t37.5 -7.5q66 0 74 86h123q0 -74 -37 -139q-53 -94 -154 -95q-76 0 -153 39l-35 18q-31 15 -52.5 22t-37.5 7 q-66 0 -74 -86h-123z" />
<glyph unicode="&#xd2;" horiz-adv-x="1591" d="M111 739q0 336 179 557.5t506.5 221.5t506 -220.5t178.5 -558.5q0 -336 -178.5 -556t-505.5 -220q-330 0 -508 220t-178 556zM319 739q0 -121 25 -227t78 -199.5t149.5 -147.5t225.5 -54t224 54t148.5 146t78 199.5t24.5 228.5q0 123 -24.5 229.5t-78 200t-148.5 147.5 t-224 54t-225.5 -54t-149.5 -147.5t-78 -200t-25 -229.5zM526 1892h222l223 -295h-174z" />
<glyph unicode="&#xd3;" horiz-adv-x="1591" d="M111 739q0 336 179 557.5t506.5 221.5t506 -220.5t178.5 -558.5q0 -336 -178.5 -556t-505.5 -220q-330 0 -508 220t-178 556zM319 739q0 -121 25 -227t78 -199.5t149.5 -147.5t225.5 -54t224 54t148.5 146t78 199.5t24.5 228.5q0 123 -24.5 229.5t-78 200t-148.5 147.5 t-224 54t-225.5 -54t-149.5 -147.5t-78 -200t-25 -229.5zM623 1597l221 295h223l-272 -295h-172z" />
<glyph unicode="&#xd4;" horiz-adv-x="1591" d="M111 739q0 336 179 557.5t506.5 221.5t506 -220.5t178.5 -558.5q0 -336 -178.5 -556t-505.5 -220q-330 0 -508 220t-178 556zM319 739q0 -121 25 -227t78 -199.5t149.5 -147.5t225.5 -54t224 54t148.5 146t78 199.5t24.5 228.5q0 123 -24.5 229.5t-78 200t-148.5 147.5 t-224 54t-225.5 -54t-149.5 -147.5t-78 -200t-25 -229.5zM463 1597l221 295h221l223 -295h-172l-161 197l-160 -197h-172z" />
<glyph unicode="&#xd5;" horiz-adv-x="1591" d="M111 739q0 336 179 557.5t506.5 221.5t506 -220.5t178.5 -558.5q0 -336 -178.5 -556t-505.5 -220q-330 0 -508 220t-178 556zM319 739q0 -121 25 -227t78 -199.5t149.5 -147.5t225.5 -54t224 54t148.5 146t78 199.5t24.5 228.5q0 123 -24.5 229.5t-78 200t-148.5 147.5 t-224 54t-225.5 -54t-149.5 -147.5t-78 -200t-25 -229.5zM463 1597q0 72 37 140q53 94 153 94q76 0 154 -39l35 -17q31 -15 52 -22.5t38 -7.5q66 0 74 86h122q0 -74 -36 -139q-53 -94 -154 -95q-76 0 -154 39l-34 18q-31 15 -52.5 22t-38.5 7q-66 0 -73 -86h-123z" />
<glyph unicode="&#xd6;" horiz-adv-x="1591" d="M111 739q0 336 179 557.5t506.5 221.5t506 -220.5t178.5 -558.5q0 -336 -178.5 -556t-505.5 -220q-330 0 -508 220t-178 556zM319 739q0 -121 25 -227t78 -199.5t149.5 -147.5t225.5 -54t224 54t148.5 146t78 199.5t24.5 228.5q0 123 -24.5 229.5t-78 200t-148.5 147.5 t-224 54t-225.5 -54t-149.5 -147.5t-78 -200t-25 -229.5zM514 1597v172h172v-172h-172zM907 1597v172h172v-172h-172z" />
<glyph unicode="&#xd7;" d="M55 104l488 488l-488 487l105 105l487 -488l488 488l104 -105l-487 -487l487 -488l-104 -104l-488 487l-487 -487z" />
<glyph unicode="&#xd8;" horiz-adv-x="1591" d="M111 -37l172 227q-172 209 -172 549q0 336 179 557.5t507 221.5q236 0 403 -123l94 123h187l-172 -226q88 -104 130 -256.5t42 -296.5q0 -336 -178.5 -556t-505.5 -220q-229 0 -406 125l-94 -125h-186zM319 739q0 -227 84 -393l695 914q-123 111 -301 110 q-129 0 -225.5 -54t-149.5 -147.5t-78 -200t-25 -229.5zM494 223q106 -113 303 -112q129 0 224 54t148.5 146t78 199.5t24.5 228.5q0 248 -82 396z" />
<glyph unicode="&#xd9;" horiz-adv-x="1419" d="M184 492v989h197v-916q0 -84 7 -146.5t28.5 -124t59.5 -99t102.5 -61t154.5 -23.5q88 0 150.5 24.5t96.5 61t53.5 101t23.5 121t4 142.5v920h172v-989q0 -528 -508 -529q-274 0 -407.5 136.5t-133.5 392.5zM440 1892h222l223 -295h-174z" />
<glyph unicode="&#xda;" horiz-adv-x="1419" d="M184 492v989h197v-916q0 -84 7 -146.5t28.5 -124t59.5 -99t102.5 -61t154.5 -23.5q88 0 150.5 24.5t96.5 61t53.5 101t23.5 121t4 142.5v920h172v-989q0 -528 -508 -529q-274 0 -407.5 136.5t-133.5 392.5zM537 1597l221 295h223l-272 -295h-172z" />
<glyph unicode="&#xdb;" horiz-adv-x="1419" d="M184 492v989h197v-916q0 -84 7 -146.5t28.5 -124t59.5 -99t102.5 -61t154.5 -23.5q88 0 150.5 24.5t96.5 61t53.5 101t23.5 121t4 142.5v920h172v-989q0 -528 -508 -529q-274 0 -407.5 136.5t-133.5 392.5zM377 1597l221 295h221l223 -295h-172l-161 197l-160 -197h-172z " />
<glyph unicode="&#xdc;" horiz-adv-x="1419" d="M184 492v989h197v-916q0 -84 7 -146.5t28.5 -124t59.5 -99t102.5 -61t154.5 -23.5q88 0 150.5 24.5t96.5 61t53.5 101t23.5 121t4 142.5v920h172v-989q0 -528 -508 -529q-274 0 -407.5 136.5t-133.5 392.5zM428 1597v172h172v-172h-172zM821 1597v172h172v-172h-172z" />
<glyph unicode="&#xdd;" horiz-adv-x="1275" d="M27 1481h227l387 -678l418 678h188l-530 -865v-616h-197v616zM465 1597l221 295h223l-272 -295h-172z" />
<glyph unicode="&#xde;" horiz-adv-x="1132" d="M197 0v1481h196v-297h283q176 0 295 -94.5t119 -290.5q0 -514 -697 -506v-293h-196zM393 440q487 -27 488 342q0 129 -78 191.5t-180 62.5h-230v-596z" />
<glyph unicode="&#xdf;" horiz-adv-x="1224" d="M197 0v1249q0 178 96 266.5t268 88.5q174 0 270.5 -74t96.5 -195q0 -115 -103 -254q-10 -14 -30 -41l-31 -40q-10 -13 -22.5 -32.5t-17.5 -33.5t-5 -29q0 -16 4 -30.5t16.5 -32t22.5 -29.5t36.5 -35.5t45 -39t59.5 -50.5t70 -59q96 -82 143 -156t47 -180 q0 -125 -88 -221.5t-264 -96.5q-147 0 -276 58v170q180 -80 282 -80q72 0 117 43t45 113q0 45 -23.5 86t-42 57t-69.5 59q-188 156 -248.5 224.5t-60.5 144.5q0 12 2 25.5t4 22.5t7 23.5t8 22.5t11 22.5t11.5 20.5t13.5 22.5t13 20.5t15.5 22.5t14.5 20.5q96 141 96 236 q0 74 -49 110.5t-125 36.5q-70 0 -107.5 -41t-47 -89t-9.5 -118v-1208h-196z" />
<glyph unicode="&#xe0;" horiz-adv-x="1130" d="M90 274q0 158 139.5 263.5t409.5 105.5h78v74q0 131 -38 188.5t-163 57.5q-152 0 -332 -97v162q193 82 379 82q350 0 350 -322v-483q0 -121 27 -155q25 -35 78 -33h37l14 -111q-61 -31 -145 -31q-72 0 -121 45.5t-62 116.5q-162 -162 -333 -162q-135 0 -226.5 83 t-91.5 216zM287 303q0 -72 52 -120t126 -48q123 0 252 111v280h-94q-70 0 -140.5 -18.5t-133 -71.5t-62.5 -133zM295 1579h221l223 -295h-174z" />
<glyph unicode="&#xe1;" horiz-adv-x="1130" d="M90 274q0 158 139.5 263.5t409.5 105.5h78v74q0 131 -38 188.5t-163 57.5q-152 0 -332 -97v162q193 82 379 82q350 0 350 -322v-483q0 -121 27 -155q25 -35 78 -33h37l14 -111q-61 -31 -145 -31q-72 0 -121 45.5t-62 116.5q-162 -162 -333 -162q-135 0 -226.5 83 t-91.5 216zM287 303q0 -72 52 -120t126 -48q123 0 252 111v280h-94q-70 0 -140.5 -18.5t-133 -71.5t-62.5 -133zM391 1284l221 295h224l-273 -295h-172z" />
<glyph unicode="&#xe2;" horiz-adv-x="1130" d="M90 274q0 158 139.5 263.5t409.5 105.5h78v74q0 131 -38 188.5t-163 57.5q-152 0 -332 -97v162q193 82 379 82q350 0 350 -322v-483q0 -121 27 -155q25 -35 78 -33h37l14 -111q-61 -31 -145 -31q-72 0 -121 45.5t-62 116.5q-162 -162 -333 -162q-135 0 -226.5 83 t-91.5 216zM231 1284l222 295h221l223 -295h-172l-162 197l-160 -197h-172zM287 303q0 -72 52 -120t126 -48q123 0 252 111v280h-94q-70 0 -140.5 -18.5t-133 -71.5t-62.5 -133z" />
<glyph unicode="&#xe3;" horiz-adv-x="1130" d="M90 274q0 158 139.5 263.5t409.5 105.5h78v74q0 131 -38 188.5t-163 57.5q-152 0 -332 -97v162q193 82 379 82q350 0 350 -322v-483q0 -121 27 -155q25 -35 78 -33h37l14 -111q-61 -31 -145 -31q-72 0 -121 45.5t-62 116.5q-162 -162 -333 -162q-135 0 -226.5 83 t-91.5 216zM231 1284q0 72 37 139q53 94 154 95q76 0 153 -39l35 -18q31 -15 52.5 -22t37.5 -7q66 0 74 86h123q0 -74 -37 -140q-53 -94 -153 -94q-76 0 -154 39l-35 17q-31 15 -52.5 22.5t-37.5 7.5q-66 0 -74 -86h-123zM287 303q0 -72 52 -120t126 -48q123 0 252 111v280 h-94q-70 0 -140.5 -18.5t-133 -71.5t-62.5 -133z" />
<glyph unicode="&#xe4;" horiz-adv-x="1130" d="M90 274q0 158 139.5 263.5t409.5 105.5h78v74q0 131 -38 188.5t-163 57.5q-152 0 -332 -97v162q193 82 379 82q350 0 350 -322v-483q0 -121 27 -155q25 -35 78 -33h37l14 -111q-61 -31 -145 -31q-72 0 -121 45.5t-62 116.5q-162 -162 -333 -162q-135 0 -226.5 83 t-91.5 216zM283 1284v172h172v-172h-172zM287 303q0 -72 52 -120t126 -48q123 0 252 111v280h-94q-70 0 -140.5 -18.5t-133 -71.5t-62.5 -133zM676 1284v172h172v-172h-172z" />
<glyph unicode="&#xe5;" horiz-adv-x="1130" d="M90 274q0 158 139.5 263.5t409.5 105.5h78v74q0 131 -38 188.5t-163 57.5q-152 0 -332 -97v162q193 82 379 82q350 0 350 -322v-483q0 -121 27 -155q25 -35 78 -33h37l14 -111q-61 -31 -145 -31q-72 0 -121 45.5t-62 116.5q-162 -162 -333 -162q-135 0 -226.5 83 t-91.5 216zM287 303q0 -72 52 -120t126 -48q123 0 252 111v280h-94q-70 0 -140.5 -18.5t-133 -71.5t-62.5 -133zM406 1443.5q0 65.5 47 113t112.5 47.5t112.5 -47.5t47 -113t-47 -112.5t-112.5 -47t-112.5 47t-47 112.5zM479 1444q0 -35 25.5 -60.5t60.5 -25.5t60.5 25.5 t25.5 60.5t-25.5 60.5t-60.5 25.5t-60.5 -25.5t-25.5 -60.5z" />
<glyph unicode="&#xe6;" horiz-adv-x="1746" d="M102 274q0 158 139.5 263.5t409.5 105.5h78v74q0 131 -38 188.5t-163 57.5q-152 0 -331 -97v162q193 82 378 82q203 0 302 -121q115 121 305 121q123 0 210 -52t131 -142.5t61.5 -189.5t12.5 -214h-671q4 -176 97 -282.5t265 -106.5q156 0 309 72v-158q-193 -61 -364 -62 q-131 0 -248 56.5t-176 161.5q-78 -92 -181.5 -155t-207.5 -63q-135 0 -226.5 83t-91.5 216zM299 303q0 -72 52 -120t126 -48q123 0 252 111v280h-94q-70 0 -140.5 -18.5t-133 -71.5t-62.5 -133zM930 647h459q2 82 -14.5 148.5t-69 117t-136.5 50.5q-115 0 -173 -94.5 t-66 -221.5z" />
<glyph unicode="&#xe7;" horiz-adv-x="1060" d="M111 543q0 100 24.5 192t79.5 180.5t161.5 141.5t252.5 53q139 0 309 -35v-166q-160 53 -287 54q-164 0 -248 -124t-84 -298q0 -180 88.5 -299t260.5 -119q154 0 282 67v-157q-195 -57 -321 -58h-13l-47 -77q68 -12 112 -51.5t44 -102.5q0 -74 -59.5 -109.5t-133.5 -35.5 q-59 0 -120 22v84q41 -8 65 -8q100 0 101 70q0 41 -38 64.5t-85 29.5l75 123q-102 14 -181 63t-122 108.5t-70.5 135.5t-36.5 135.5t-9 116.5z" />
<glyph unicode="&#xe8;" horiz-adv-x="1140" d="M111 543q0 147 50 273t158.5 210t258.5 84q123 0 209.5 -52t131 -142.5t61.5 -189.5t13 -214h-674q4 -176 98.5 -282.5t266.5 -106.5q156 0 309 72v-158q-193 -61 -364 -62q-127 0 -224.5 43t-150.5 104.5t-88 143.5t-45 148t-10 129zM301 1579h221l223 -295h-174z M326 647h458q2 82 -14 148.5t-68.5 117t-136.5 50.5q-115 0 -173 -94.5t-66 -221.5z" />
<glyph unicode="&#xe9;" horiz-adv-x="1140" d="M111 543q0 147 50 273t158.5 210t258.5 84q123 0 209.5 -52t131 -142.5t61.5 -189.5t13 -214h-674q4 -176 98.5 -282.5t266.5 -106.5q156 0 309 72v-158q-193 -61 -364 -62q-127 0 -224.5 43t-150.5 104.5t-88 143.5t-45 148t-10 129zM326 647h458q2 82 -14 148.5 t-68.5 117t-136.5 50.5q-115 0 -173 -94.5t-66 -221.5zM397 1284l221 295h224l-273 -295h-172z" />
<glyph unicode="&#xea;" horiz-adv-x="1140" d="M111 543q0 147 50 273t158.5 210t258.5 84q123 0 209.5 -52t131 -142.5t61.5 -189.5t13 -214h-674q4 -176 98.5 -282.5t266.5 -106.5q156 0 309 72v-158q-193 -61 -364 -62q-127 0 -224.5 43t-150.5 104.5t-88 143.5t-45 148t-10 129zM238 1284l221 295h221l223 -295 h-172l-162 197l-159 -197h-172zM326 647h458q2 82 -14 148.5t-68.5 117t-136.5 50.5q-115 0 -173 -94.5t-66 -221.5z" />
<glyph unicode="&#xeb;" horiz-adv-x="1140" d="M111 543q0 147 50 273t158.5 210t258.5 84q123 0 209.5 -52t131 -142.5t61.5 -189.5t13 -214h-674q4 -176 98.5 -282.5t266.5 -106.5q156 0 309 72v-158q-193 -61 -364 -62q-127 0 -224.5 43t-150.5 104.5t-88 143.5t-45 148t-10 129zM289 1284v172h172v-172h-172z M326 647h458q2 82 -14 148.5t-68.5 117t-136.5 50.5q-115 0 -173 -94.5t-66 -221.5zM682 1284v172h172v-172h-172z" />
<glyph unicode="&#xec;" horiz-adv-x="591" d="M27 1579h221l223 -295h-174zM197 0v1085h196v-1085h-196z" />
<glyph unicode="&#xed;" horiz-adv-x="591" d="M123 1284l221 295h223l-272 -295h-172zM197 0v1085h196v-1085h-196z" />
<glyph unicode="&#xee;" horiz-adv-x="591" d="M-37 1284l221 295h222l223 -295h-172l-162 197l-160 -197h-172zM197 0v1085h196v-1085h-196z" />
<glyph unicode="&#xef;" horiz-adv-x="591" d="M14 1284v172h172v-172h-172zM197 0v1085h196v-1085h-196zM408 1284v172h172v-172h-172z" />
<glyph unicode="&#xf0;" horiz-adv-x="1232" d="M109 541q0 233 135 388.5t366 155.5q102 0 181 -41q-82 164 -250 261l-258 -193l-88 117l194 145q-104 39 -237 58v147q205 -18 378 -98l238 176l88 -117l-184 -137q215 -143 332.5 -366.5t117.5 -465.5q0 -252 -133 -424t-377 -172q-238 0 -370.5 161t-132.5 405z M317 543q0 -109 26 -198t98.5 -155.5t185.5 -66.5q33 0 67.5 9t77.5 37t76 72t55.5 122.5t22.5 179.5q0 395 -299 395q-158 0 -234 -114.5t-76 -280.5z" />
<glyph unicode="&#xf1;" horiz-adv-x="1269" d="M190 0v1085h197l-12 -202h12q156 227 389 227q139 0 221 -92t82 -221v-797h-196v772q0 78 -42 122t-110 44q-197 0 -344 -236v-702h-197zM301 1284q0 72 37 139q53 94 154 95q76 0 153 -39l35 -18q31 -15 52.5 -22t37.5 -7q66 0 74 86h123q0 -74 -37 -140 q-53 -94 -154 -94q-76 0 -153 39l-35 17q-31 15 -52.5 22.5t-37.5 7.5q-66 0 -74 -86h-123z" />
<glyph unicode="&#xf2;" horiz-adv-x="1257" d="M111 543q0 100 24.5 192t79.5 180.5t161.5 141.5t252 53t252 -53t162 -141.5t80 -180.5t24.5 -192q0 -63 -10.5 -129t-45 -148t-88 -143.5t-150.5 -104.5t-224 -43t-224.5 43t-150.5 104.5t-88 143.5t-45 148t-10 129zM319 543q0 -176 73 -298t237 -122t236.5 122 t72.5 298t-72.5 298t-236.5 122t-237 -122t-73 -298zM358 1579h222l223 -295h-174z" />
<glyph unicode="&#xf3;" horiz-adv-x="1257" d="M111 543q0 100 24.5 192t79.5 180.5t161.5 141.5t252 53t252 -53t162 -141.5t80 -180.5t24.5 -192q0 -63 -10.5 -129t-45 -148t-88 -143.5t-150.5 -104.5t-224 -43t-224.5 43t-150.5 104.5t-88 143.5t-45 148t-10 129zM319 543q0 -176 73 -298t237 -122t236.5 122 t72.5 298t-72.5 298t-236.5 122t-237 -122t-73 -298zM455 1284l221 295h223l-272 -295h-172z" />
<glyph unicode="&#xf4;" horiz-adv-x="1257" d="M111 543q0 100 24.5 192t79.5 180.5t161.5 141.5t252 53t252 -53t162 -141.5t80 -180.5t24.5 -192q0 -63 -10.5 -129t-45 -148t-88 -143.5t-150.5 -104.5t-224 -43t-224.5 43t-150.5 104.5t-88 143.5t-45 148t-10 129zM295 1284l221 295h221l224 -295h-173l-161 197 l-160 -197h-172zM319 543q0 -176 73 -298t237 -122t236.5 122t72.5 298t-72.5 298t-236.5 122t-237 -122t-73 -298z" />
<glyph unicode="&#xf5;" horiz-adv-x="1257" d="M111 543q0 100 24.5 192t79.5 180.5t161.5 141.5t252 53t252 -53t162 -141.5t80 -180.5t24.5 -192q0 -63 -10.5 -129t-45 -148t-88 -143.5t-150.5 -104.5t-224 -43t-224.5 43t-150.5 104.5t-88 143.5t-45 148t-10 129zM295 1284q0 72 37 139q53 94 153 95q76 0 154 -39 l35 -18q31 -15 52.5 -22t37.5 -7q66 0 74 86h123q0 -74 -37 -140q-53 -94 -154 -94q-76 0 -154 39l-34 17q-31 15 -52.5 22.5t-37.5 7.5q-66 0 -74 -86h-123zM319 543q0 -176 73 -298t237 -122t236.5 122t72.5 298t-72.5 298t-236.5 122t-237 -122t-73 -298z" />
<glyph unicode="&#xf6;" horiz-adv-x="1257" d="M111 543q0 100 24.5 192t79.5 180.5t161.5 141.5t252 53t252 -53t162 -141.5t80 -180.5t24.5 -192q0 -63 -10.5 -129t-45 -148t-88 -143.5t-150.5 -104.5t-224 -43t-224.5 43t-150.5 104.5t-88 143.5t-45 148t-10 129zM319 543q0 -176 73 -298t237 -122t236.5 122 t72.5 298t-72.5 298t-236.5 122t-237 -122t-73 -298zM346 1284v172h172v-172h-172zM739 1284v172h172v-172h-172z" />
<glyph unicode="&#xf7;" d="M55 518v148h1184v-148h-1184zM537 74v221h221v-221h-221zM537 889v221h221v-221h-221z" />
<glyph unicode="&#xf8;" horiz-adv-x="1257" d="M111 -25l127 170q-127 160 -127 398q0 100 24.5 192t79.5 180.5t161.5 141.5t252.5 53q158 0 280 -70l54 70h184l-127 -166q127 -150 127 -401q0 -63 -10.5 -129t-45 -148t-88 -143.5t-150.5 -104.5t-224 -43q-158 0 -281 70l-51 -70h-186zM319 543q0 -137 39 -234 l449 596q-78 57 -178 58q-164 0 -237 -122t-73 -298zM451 180q78 -57 178 -57q164 0 236.5 122t72.5 298q0 145 -39 235z" />
<glyph unicode="&#xf9;" horiz-adv-x="1269" d="M190 289v796h197v-772q0 -78 42 -122t110 -44q197 0 344 236v702h196v-1085h-196l12 203h-12q-156 -227 -389 -228q-139 0 -221.5 92.5t-82.5 221.5zM365 1579h221l223 -295h-174z" />
<glyph unicode="&#xfa;" horiz-adv-x="1269" d="M190 289v796h197v-772q0 -78 42 -122t110 -44q197 0 344 236v702h196v-1085h-196l12 203h-12q-156 -227 -389 -228q-139 0 -221.5 92.5t-82.5 221.5zM461 1284l221 295h223l-272 -295h-172z" />
<glyph unicode="&#xfb;" horiz-adv-x="1269" d="M190 289v796h197v-772q0 -78 42 -122t110 -44q197 0 344 236v702h196v-1085h-196l12 203h-12q-156 -227 -389 -228q-139 0 -221.5 92.5t-82.5 221.5zM301 1284l221 295h221l224 -295h-172l-162 197l-160 -197h-172z" />
<glyph unicode="&#xfc;" horiz-adv-x="1269" d="M190 289v796h197v-772q0 -78 42 -122t110 -44q197 0 344 236v702h196v-1085h-196l12 203h-12q-156 -227 -389 -228q-139 0 -221.5 92.5t-82.5 221.5zM352 1284v172h172v-172h-172zM745 1284v172h173v-172h-173z" />
<glyph unicode="&#xfd;" horiz-adv-x="1163" d="M35 1085h213l330 -843l391 843h176l-684 -1480h-195l195 395zM408 1284l221 295h223l-272 -295h-172z" />
<glyph unicode="&#xfe;" horiz-adv-x="1290" d="M197 -395v1974h196v-494l-12 -202h12q115 227 363 227q113 0 196.5 -45t132 -123t71 -170t22.5 -199q0 -109 -27 -212t-80 -191t-143 -141.5t-207 -53.5q-205 0 -328 148h-12l12 -148v-370h-196zM393 260q82 -72 144.5 -104.5t150.5 -32.5q80 0 137.5 40t87 106.5t43 136 t13.5 145.5q0 387 -250 387q-172 0 -326 -180v-498z" />
<glyph unicode="&#xff;" horiz-adv-x="1163" d="M35 1085h213l330 -843l391 843h176l-684 -1480h-195l195 395zM299 1284v172h172v-172h-172zM692 1284v172h172v-172h-172z" />
<glyph unicode="&#x152;" horiz-adv-x="2048" d="M111 739q0 336 179 557.5t507 221.5q193 0 338 -99v62h815v-148h-619v-487h520v-148h-520v-551h662v-147h-858v61q-152 -98 -338 -98q-330 0 -508 220t-178 556zM322 739q0 -121 24.5 -227t76.5 -199.5t148.5 -147.5t225.5 -54q170 0 254 109.5t84 287.5v506 q0 88 -27 156.5t-64.5 104.5t-88 59.5t-87.5 29.5t-71 6q-129 0 -225.5 -54t-148.5 -147.5t-76.5 -200t-24.5 -229.5z" />
<glyph unicode="&#x153;" horiz-adv-x="1904" d="M111 543q0 100 24.5 192t79.5 180.5t161.5 141.5t252.5 53q217 0 346 -199q104 199 364 199q123 0 210 -52t131 -142.5t61.5 -189.5t13.5 -214h-674q4 -176 98.5 -282.5t266.5 -106.5q156 0 309 72v-158q-193 -61 -364 -62q-127 0 -237 48.5t-175 150.5 q-123 -199 -350 -199q-127 0 -224.5 43t-150.5 104.5t-88 143.5t-45 148t-10 129zM319 543q0 -176 73 -298t237 -122q256 0 256 432q0 408 -256 408q-164 0 -237 -122t-73 -298zM1087 647h459q2 82 -14 148.5t-68.5 117t-136.5 50.5q-115 0 -173.5 -94.5t-66.5 -221.5z" />
<glyph unicode="&#x178;" horiz-adv-x="1275" d="M27 1481h227l387 -678l418 678h188l-530 -865v-616h-197v616zM356 1597v172h172v-172h-172zM750 1597v172h172v-172h-172z" />
<glyph unicode="&#x2c6;" horiz-adv-x="1257" d="M295 1284l221 295h221l224 -295h-173l-161 197l-160 -197h-172z" />
<glyph unicode="&#x2dc;" horiz-adv-x="1257" d="M295 1284q0 72 37 139q53 94 153 95q76 0 154 -39l35 -18q31 -15 52.5 -22t37.5 -7q66 0 74 86h123q0 -74 -37 -140q-53 -94 -154 -94q-76 0 -154 39l-34 17q-31 15 -52.5 22.5t-37.5 7.5q-66 0 -74 -86h-123z" />
<glyph unicode="&#x2000;" horiz-adv-x="958" />
<glyph unicode="&#x2001;" horiz-adv-x="1916" />
<glyph unicode="&#x2002;" horiz-adv-x="958" />
<glyph unicode="&#x2003;" horiz-adv-x="1916" />
<glyph unicode="&#x2004;" horiz-adv-x="638" />
<glyph unicode="&#x2005;" horiz-adv-x="479" />
<glyph unicode="&#x2006;" horiz-adv-x="319" />
<glyph unicode="&#x2007;" horiz-adv-x="319" />
<glyph unicode="&#x2008;" horiz-adv-x="239" />
<glyph unicode="&#x2009;" horiz-adv-x="382" />
<glyph unicode="&#x200a;" horiz-adv-x="106" />
<glyph unicode="&#x2010;" horiz-adv-x="665" d="M111 543v147h444v-147h-444z" />
<glyph unicode="&#x2011;" horiz-adv-x="665" d="M111 543v147h444v-147h-444z" />
<glyph unicode="&#x2012;" horiz-adv-x="665" d="M111 543v147h444v-147h-444z" />
<glyph unicode="&#x2013;" horiz-adv-x="1024" d="M0 543v123h1024v-123h-1024z" />
<glyph unicode="&#x2014;" horiz-adv-x="2048" d="M0 543v123h2048v-123h-2048z" />
<glyph unicode="&#x2018;" horiz-adv-x="468" d="M111 1038v189q0 72 10 128t35.5 107t77 82t124.5 37v-76q-59 -16 -84 -86q-20 -57 -16 -135h100v-246h-247z" />
<glyph unicode="&#x2019;" horiz-adv-x="468" d="M111 1036v76q59 16 84 86q20 57 16 135h-100v246h247v-188q0 -72 -10 -128.5t-35.5 -107.5t-76.5 -82t-125 -37z" />
<glyph unicode="&#x201a;" horiz-adv-x="468" d="M111 0v246h247v-189q0 -72 -10 -128t-35.5 -107t-77 -82t-124.5 -37v76q59 16 84 86q20 57 16 135h-100z" />
<glyph unicode="&#x201c;" horiz-adv-x="763" d="M111 1085v224q0 113 69.5 186.5t126.5 83.5v-74q-47 -23 -61 -94q-8 -41 -8 -129h69v-197h-196zM457 1085v224q0 113 69.5 186.5t126.5 83.5v-74q-47 -23 -61 -94q-8 -41 -8 -129h69v-197h-196z" />
<glyph unicode="&#x201d;" horiz-adv-x="763" d="M111 1085v74q47 23 61 94q8 41 8 129h-69v197h196v-223q0 -113 -69.5 -187t-126.5 -84zM457 1085v74q47 23 61 94q8 41 8 129h-69v197h196v-223q0 -113 -69.5 -187t-126.5 -84z" />
<glyph unicode="&#x201e;" horiz-adv-x="763" d="M111 0v197h196v-224q0 -113 -69.5 -186.5t-126.5 -83.5v74q47 23 61 94q8 41 8 129h-69zM457 0v197h196v-224q0 -113 -69.5 -186.5t-126.5 -83.5v74q47 23 61 94q8 41 8 129h-69z" />
<glyph unicode="&#x2022;" d="M340 285v616h616v-616h-616z" />
<glyph unicode="&#x2026;" horiz-adv-x="2048" d="M217 0v246h248v-246h-248zM899 0v246h248v-246h-248zM1581 0v246h248v-246h-248z" />
<glyph unicode="&#x202f;" horiz-adv-x="382" />
<glyph unicode="&#x2039;" horiz-adv-x="677" d="M111 604l395 445l98 -74l-295 -371l295 -371l-98 -73z" />
<glyph unicode="&#x203a;" horiz-adv-x="677" d="M74 233l295 371l-295 371l98 74l395 -445l-395 -444z" />
<glyph unicode="&#x205f;" horiz-adv-x="479" />
<glyph unicode="&#x20ac;" d="M4 537l51 122h133q-2 33 -2 76q0 39 7 123h-189l51 123h158q59 260 234.5 397.5t449.5 137.5q76 0 135 -9q74 -6 201 -37v-182q-6 2 -76 29q-129 43 -260 43q-209 0 -336 -123q-55 -55 -83.5 -104.5t-61.5 -151.5h688l-51 -123h-662q-8 -111 -8 -123q0 -6 4 -76h584 l-51 -122h-512q31 -111 60.5 -166.5t88.5 -114.5q131 -129 326 -129q80 0 151 14q74 14 199 58v-172l-68 -19q-166 -45 -301 -45q-555 0 -657 574h-203z" />
<glyph unicode="&#x2122;" horiz-adv-x="1652" d="M4 1358v123h664v-123h-246v-619h-172v619h-246zM791 739v742h233l154 -428h4l147 428h213v-742h-172v537h-4l-160 -473h-119l-157 430h-4v-494h-135z" />
<glyph unicode="&#xe000;" horiz-adv-x="1085" d="M0 1085h1085v-1085h-1085v1085z" />
<glyph unicode="&#xfb01;" horiz-adv-x="1320" d="M80 938v147h153v189q0 164 101.5 247t257.5 83q106 0 221 -33v-156q-127 41 -213 41q-88 0 -129 -47t-41 -115v-209h692v-1085h-196v938h-496v-938h-197v938h-153zM926 1284v197h196v-197h-196z" />
<glyph unicode="&#xfb02;" horiz-adv-x="1320" d="M80 938v147h153v189q0 164 101.5 247t257.5 83q74 0 201 -12.5t141 -12.5h188v-1579h-196v1411q-207 45 -326 45q-88 0 -129 -47t-41 -115v-209h272v-147h-272v-938h-197v938h-153z" />
<glyph unicode="&#xfb03;" horiz-adv-x="2095" d="M1700 0v1085h196v-1085h-196zM1700 1284v197h196v-197h-196zM852 938v147h154v189q0 164 101.5 247t256.5 83q106 0 222 -33v-156q-127 41 -213 41q-88 0 -129 -47t-41 -115v-209h272v-147h-272v-938h-197v938h-154zM100 938v147h154v189q0 164 101.5 247t256.5 83 q106 0 222 -33v-156q-127 41 -213 41q-88 0 -129 -47t-41 -115v-209h272v-147h-272v-938h-197v938h-154z" />
<glyph unicode="&#xfb04;" horiz-adv-x="2095" d="M1700 0v1579h196v-1579h-196zM852 938v147h154v189q0 164 101.5 247t256.5 83q106 0 222 -33v-156q-127 41 -213 41q-88 0 -129 -47t-41 -115v-209h272v-147h-272v-938h-197v938h-154zM100 938v147h154v189q0 164 101.5 247t256.5 83q106 0 222 -33v-156q-127 41 -213 41 q-88 0 -129 -47t-41 -115v-209h272v-147h-272v-938h-197v938h-154z" />
</font>
</defs>
</svg>
